<svg xmlns="http://www.w3.org/2000/svg" xmlns:xlink="http://www.w3.org/1999/xlink" width="800" zoomAndPan="magnify" viewBox="0 0 600 599.999999" height="800" preserveAspectRatio="xMidYMid meet" version="1.0"><defs><g/><clipPath id="889d9f373e"><path d="M 220.1875 343 L 321 343 L 321 372.082031 L 220.1875 372.082031 Z M 220.1875 343 " clip-rule="nonzero"/></clipPath></defs><g fill="#ffffff" fill-opacity="1"><g transform="translate(46.118094, 329.294303)"><g><path d="M 37.15625 -50.0625 L 37.15625 -60.3125 L 24 -60.3125 L 24 -64.421875 C 24 -68.15625 24.25 -72.75 32.578125 -72.75 C 34.375 -72.75 36.796875 -72.5 37.15625 -72.390625 L 37.15625 -84.6875 C 34.375 -85.046875 31.734375 -85.296875 28.953125 -85.296875 C 12.671875 -85.296875 9.53125 -79.140625 9.53125 -68.640625 L 9.53125 -60.3125 L 0.484375 -60.3125 L 0.484375 -50.0625 L 9.53125 -50.0625 L 9.53125 0 L 24 0 L 24 -50.0625 Z M 37.15625 -50.0625 "/></g></g></g><g fill="#ffffff" fill-opacity="1"><g transform="translate(83.393631, 329.294303)"><g><path d="M 60.3125 0 C 57.90625 -3.859375 57.671875 -5.1875 57.671875 -9.765625 L 57.671875 -45 C 57.671875 -55.609375 50.0625 -62.125 32.328125 -62.125 C 7 -62.125 6.15625 -46.6875 5.90625 -42.703125 L 20.625 -41.859375 C 20.625 -45 21.828125 -50.90625 32.8125 -50.90625 C 41.859375 -50.90625 43.1875 -46.453125 43.1875 -41.859375 C 39.328125 -40.53125 33.65625 -39.09375 24.609375 -37.40625 C 13.15625 -35.34375 3.140625 -30.15625 3.140625 -17.015625 C 3.140625 -6.875 11.34375 1.453125 25.09375 1.453125 C 32.453125 1.453125 38.84375 -1.5625 42.828125 -4.703125 L 43.1875 0 Z M 43.1875 -21.953125 C 43.1875 -14.359375 34.984375 -10.984375 28.34375 -10.984375 C 21.109375 -10.984375 18.453125 -14.359375 18.453125 -18.34375 C 18.453125 -24.375 25.09375 -25.703125 31.734375 -26.65625 C 37.28125 -27.5 40.78125 -28.828125 43.1875 -30.046875 Z M 43.1875 -21.953125 "/></g></g></g><g fill="#ffffff" fill-opacity="1"><g transform="translate(148.294102, 329.294303)"><g><path d="M 57.1875 -50.90625 C 48.140625 -61.40625 35.953125 -62.125 31.25 -62.125 C 16.765625 -62.125 5.3125 -54.40625 5.3125 -42.46875 C 5.3125 -28.234375 21.59375 -25.21875 26.296875 -24.375 L 33.78125 -23.046875 C 39.328125 -22.078125 42.703125 -20.75 42.703125 -17.25 C 42.703125 -14.59375 39.5625 -10.140625 30.890625 -10.140625 C 21.828125 -10.140625 16.40625 -14 13.515625 -17.859375 L 2.65625 -9.046875 C 6.03125 -5.546875 14.953125 1.8125 31.609375 1.8125 C 48.25 1.8125 58.75 -7.71875 58.75 -18.8125 C 58.75 -28.59375 51.75 -34.015625 42.59375 -35.703125 L 32.8125 -37.515625 C 24.125 -39.09375 20.515625 -40.296875 20.515625 -44.28125 C 20.515625 -49.703125 27.75 -50.546875 30.515625 -50.546875 C 37.515625 -50.546875 43.671875 -47.78125 46.921875 -41.375 Z M 57.1875 -50.90625 "/></g></g></g><g fill="#ffffff" fill-opacity="1"><g transform="translate(210.661287, 329.294303)"><g><path d="M 0.484375 -50.0625 L 9.296875 -50.0625 L 9.296875 -14.109375 C 9.296875 -4.21875 13.390625 0.484375 26.296875 0.484375 C 31.25 0.484375 34.75 -0.234375 36.671875 -0.484375 L 36.671875 -12.671875 C 34.859375 -12.1875 32.6875 -11.9375 30.640625 -11.9375 C 30.046875 -11.9375 26.90625 -11.9375 25.21875 -13.75 C 23.890625 -15.203125 23.765625 -17.859375 23.765625 -20.140625 L 23.765625 -50.0625 L 36.671875 -50.0625 L 36.671875 -60.3125 L 23.765625 -60.3125 L 23.765625 -81.796875 L 9.296875 -81.796875 L 9.296875 -60.3125 L 0.484375 -60.3125 Z M 0.484375 -50.0625 "/></g></g></g><g fill="#ffffff" fill-opacity="1"><g transform="translate(247.936821, 329.294303)"><g/></g></g><g fill="#ffffff" fill-opacity="1"><g transform="translate(282.196539, 329.294303)"><g><path d="M 0.484375 -50.0625 L 9.296875 -50.0625 L 9.296875 -14.109375 C 9.296875 -4.21875 13.390625 0.484375 26.296875 0.484375 C 31.25 0.484375 34.75 -0.234375 36.671875 -0.484375 L 36.671875 -12.671875 C 34.859375 -12.1875 32.6875 -11.9375 30.640625 -11.9375 C 30.046875 -11.9375 26.90625 -11.9375 25.21875 -13.75 C 23.890625 -15.203125 23.765625 -17.859375 23.765625 -20.140625 L 23.765625 -50.0625 L 36.671875 -50.0625 L 36.671875 -60.3125 L 23.765625 -60.3125 L 23.765625 -81.796875 L 9.296875 -81.796875 L 9.296875 -60.3125 L 0.484375 -60.3125 Z M 0.484375 -50.0625 "/></g></g></g><g fill="#ffffff" fill-opacity="1"><g transform="translate(319.472073, 329.294303)"><g><path d="M 7.71875 -60.3125 L 7.71875 0 L 21.71875 0 L 21.71875 -25.8125 C 21.71875 -29.3125 21.71875 -32.328125 22.796875 -35.703125 C 26.296875 -46.8125 37.875 -46.8125 40.890625 -46.8125 L 40.890625 -61.640625 L 39.6875 -61.640625 C 36.796875 -61.640625 26.296875 -61.28125 21.71875 -51.75 L 21.71875 -60.3125 Z M 7.71875 -60.3125 "/></g></g></g><g fill="#ffffff" fill-opacity="1"><g transform="translate(361.693561, 329.294303)"><g><path d="M 60.3125 0 C 57.90625 -3.859375 57.671875 -5.1875 57.671875 -9.765625 L 57.671875 -45 C 57.671875 -55.609375 50.0625 -62.125 32.328125 -62.125 C 7 -62.125 6.15625 -46.6875 5.90625 -42.703125 L 20.625 -41.859375 C 20.625 -45 21.828125 -50.90625 32.8125 -50.90625 C 41.859375 -50.90625 43.1875 -46.453125 43.1875 -41.859375 C 39.328125 -40.53125 33.65625 -39.09375 24.609375 -37.40625 C 13.15625 -35.34375 3.140625 -30.15625 3.140625 -17.015625 C 3.140625 -6.875 11.34375 1.453125 25.09375 1.453125 C 32.453125 1.453125 38.84375 -1.5625 42.828125 -4.703125 L 43.1875 0 Z M 43.1875 -21.953125 C 43.1875 -14.359375 34.984375 -10.984375 28.34375 -10.984375 C 21.109375 -10.984375 18.453125 -14.359375 18.453125 -18.34375 C 18.453125 -24.375 25.09375 -25.703125 31.734375 -26.65625 C 37.28125 -27.5 40.78125 -28.828125 43.1875 -30.046875 Z M 43.1875 -21.953125 "/></g></g></g><g fill="#ffffff" fill-opacity="1"><g transform="translate(426.594032, 329.294303)"><g><path d="M 47.65625 -23.53125 C 46.5625 -20.625 43.3125 -11.703125 33.0625 -11.703125 C 23.28125 -11.703125 17.859375 -20.03125 17.859375 -30.515625 C 17.859375 -40.53125 22.921875 -49.21875 32.6875 -49.21875 C 40.53125 -49.21875 44.75 -44.15625 46.453125 -38.96875 L 59.359375 -45 C 57.0625 -50.671875 49.09375 -62.125 33.421875 -62.125 C 13.515625 -62.125 2.890625 -45.84375 2.890625 -30.15625 C 2.890625 -12.1875 14.953125 1.8125 32.6875 1.8125 C 44.75 1.8125 55.734375 -5.0625 59.953125 -17.015625 Z M 47.65625 -23.53125 "/></g></g></g><g fill="#ffffff" fill-opacity="1"><g transform="translate(488.478688, 329.294303)"><g><path d="M 66.359375 0 L 41.015625 -37.28125 L 64.0625 -60.3125 L 45.609375 -60.3125 L 22.078125 -37.28125 L 22.078125 -85.171875 L 7.71875 -85.171875 L 7.71875 0 L 22.078125 0 L 22.078125 -18.703125 L 30.515625 -27.03125 L 48.734375 0 Z M 66.359375 0 "/></g></g></g><g clip-path="url(#889d9f373e)"><path fill="#3cd7a0" d="M 319.652344 355.222656 C 314.820312 351.230469 309.882812 347.40625 304.910156 343.589844 C 302.9375 342.085938 300.980469 344.941406 302.648438 346.574219 C 304.6875 348.570312 306.722656 350.558594 308.773438 352.53125 C 303.742188 352.078125 298.597656 352.226562 293.644531 352.277344 C 285.496094 352.351562 277.34375 352.554688 269.191406 352.632812 C 261.230469 352.714844 253.269531 352.792969 245.3125 352.929688 C 241.320312 353.003906 237.328125 353.078125 233.34375 353.308594 C 229.554688 353.519531 225.953125 354.4375 222.203125 354.824219 C 220.5625 354.996094 220.238281 357.648438 222.027344 357.835938 C 226.019531 358.253906 229.847656 359.191406 233.886719 359.390625 C 237.730469 359.578125 241.574219 359.695312 245.421875 359.761719 C 253.503906 359.898438 261.582031 359.976562 269.660156 360.050781 C 277.550781 360.125 285.429688 360.300781 293.316406 360.398438 C 298.292969 360.460938 303.566406 360.671875 308.6875 360.21875 C 307.429688 361.089844 306.175781 361.960938 304.917969 362.835938 C 302.070312 364.820312 298.34375 366.828125 296.847656 370.101562 C 296.429688 371.007812 297.050781 372.167969 298.125 372.097656 C 302.066406 371.84375 305.578125 368.761719 308.75 366.621094 C 312.246094 364.261719 315.742188 361.902344 319.238281 359.542969 C 320.621094 358.613281 321.0625 356.394531 319.652344 355.222656 Z M 319.652344 355.222656 " fill-opacity="1" fill-rule="nonzero"/></g></svg>